<svg xmlns="http://www.w3.org/2000/svg" viewBox="0 0 408 406"><path fill="#376abe" d="M26 266c18.297 3 36.577 6.012 54.775 9.57 8.645 1.669 17.31 3.198 26.037 4.368 5.556.763 11.013 1.802 16.5 2.937 7.474 1.543 14.958 2.84 22.5 4 11.14 1.723 22.197 3.788 33.251 5.98 8.143 1.617 8.143 1.617 16.32 3.055l2.27.38c1.846.304 3.696.59 5.546.874 3.276.978 4.656 2.213 6.801 4.836 1.291 2.583 1.127 4.444 1.13 7.336l.009 3.377-.006 3.662.003 3.744q0 4.93-.009 9.861-.002 3.027.003 6.053.009 5.796.003 11.592l.006 3.662-.01 3.377-.002 2.983C211 360 211 360 210 362c-8.497-.96-16.89-2.09-25.284-3.753-7.702-1.495-15.464-2.604-23.23-3.713-6.409-.947-12.604-2.245-18.873-3.878-2.964-.744-5.893-1.228-8.925-1.594-13.689-1.825-27.331-4.15-40.75-7.417-3.159-.693-6.296-1.156-9.5-1.582-5.521-.737-10.928-1.738-16.376-2.875-13.93-2.894-28.008-4.99-42.062-7.188 1.741-9.007 1.741-9.007 2.852-13.266C32.278 299.656 30.474 282.826 26 266"/><path fill="#013a98" d="M201.875 38.438c3.834 2.724 3.834 2.724 8.125 4.562v2l2.157.794c2.99 1.268 5.585 2.782 8.335 4.507l3.137 1.963 3.246 2.048 3.223 2.014c4.373 2.747 8.725 5.489 12.91 8.518 2.312 1.666 4.469 3.055 6.992 4.344 4.22 2.28 8.158 4.875 12.125 7.562 6.476 4.384 13.094 8.463 19.828 12.438A139 139 0 0 1 288 93v2c-8.028 1.665-16.029 3.213-24.14 4.41-5.026.768-10.035 1.62-15.048 2.465-9.677 1.627-19.368 3.145-29.07 4.62a1526 1526 0 0 0-22.554 3.63c-8.054 1.353-16.106 2.695-24.188 3.875l-3.898.598-4.04.59-3.652.542c-7.241.573-11.493-1.636-17.41-5.418l-2.343-1.464c-2.56-1.605-5.109-3.225-7.657-4.848l-5.508-3.492q-5.609-3.563-11.207-7.14c-4.64-2.963-9.3-5.894-13.972-8.805C97.186 80.743 91.075 76.902 85 73c-.775-.495-1.55-.99-2.35-1.499a3070 3070 0 0 1-8.088-5.189l-2.659-1.694-2.524-1.63-2.264-1.452C64.835 59.88 62.941 58.04 61 56c5.934-1.402 11.837-2.478 17.875-3.312 8.107-1.165 16.143-2.593 24.188-4.126 10.304-1.953 20.623-3.618 31.004-5.11a940 940 0 0 0 22.433-3.514l2.972-.5q5.634-.947 11.266-1.904c2.565-.435 5.132-.86 7.7-1.284l2.238-.387c7.856-1.28 14.424-2.306 21.199 2.575"/><path fill="#376abe" d="m379 175-.427 1.995c-1.389 6.958-1.922 13.606-1.885 20.692l.003 3.15c.095 7.612.964 14.705 2.653 22.116C380 226 380 226 380 230a258 258 0 0 1-26.125 5l-7.09 1.023-3.48.5c-4.668.674-9.332 1.378-13.993 2.102l-2.225.336c-3.385.53-6.674 1.164-9.985 2.047-4.632 1.2-9.293 1.7-14.04 2.242-9.843 1.2-19.569 2.865-29.312 4.688a877 877 0 0 1-37.273 6.117c-4.474.64-8.933 1.337-13.391 2.078l-3.414.566q-3.186.532-6.367 1.083c-5.855.975-11.367 1.483-17.305 1.218-1.615-1.615-1.16-3.39-1.193-5.624l-.049-2.984c-.044-4.519-.085-9.037-.108-13.555a788 788 0 0 0-.082-7.152 882 882 0 0 1-.091-10.294l-.07-3.227c.014-4.636.046-7.332 2.634-11.268 3.538-2.267 6.741-3.062 10.83-3.626l2.3-.368a610 610 0 0 1 7.267-1.09q2.39-.37 4.779-.748c4.59-.717 9.185-1.398 13.783-2.064l2.038-.295A3815 3815 0 0 1 250 195c13.505-1.923 26.956-4.144 40.408-6.405 8.522-1.43 17.04-2.858 25.592-4.095 9.543-1.383 19.051-2.976 28.563-4.562l2.369-.395c7.985-1.331 15.964-2.67 23.915-4.197 2.736-.44 5.388-.495 8.153-.346M296 107l-.437 1.95c-2.147 10.447-3.591 23.647.562 33.8 1.093 2.81.553 4.367-.125 7.25q-6.562 1.193-13.125 2.375l-3.691.672a544 544 0 0 1-21.455 3.421c-7.34 1.047-14.657 2.24-21.979 3.407q-5.085.808-10.172 1.613l-2.518.4a3803 3803 0 0 1-23.602 3.636q-8.676 1.33-17.33 2.796l-2.035.344q-4.894.827-9.784 1.674c-7.093 1.209-14.131 2.146-21.309 2.662a3974 3974 0 0 1-.11-17.352q-.016-2.953-.04-5.905c-.025-2.827-.036-5.654-.045-8.481l-.032-2.671v-2.487l-.014-2.187C149 132 149 132 151 129a95 95 0 0 1 8.688-1.437q2.728-.368 5.457-.743l2.897-.393c4.964-.716 9.896-1.607 14.833-2.49 7.172-1.268 14.338-2.454 21.555-3.445 4.465-.615 8.924-1.268 13.382-1.93l2.296-.334c5.233-.778 10.442-1.667 15.65-2.595a2204 2204 0 0 1 28.457-4.85q2.873-.474 5.744-.957c2.816-.473 5.633-.937 8.451-1.4l2.564-.436c5.08-.823 9.88-1.125 15.026-.99"/><path fill="#0554d5" d="M347 248q.079 2.843.125 5.688l.07 3.199c-.314 5.017-1.497 7.697-5.234 11.011-4.285 3.467-8.798 6.603-13.336 9.727l-5.355 3.719-2.69 1.863c-3.77 2.62-7.52 5.267-11.267 7.918L301 297a6076 6076 0 0 1-27.187 19.125 1786 1786 0 0 0-18.425 13.032c-6.174 4.424-12.407 8.766-18.638 13.11l-2.477 1.73-2.205 1.536a105 105 0 0 0-4.21 3.155C226 350 226 350 224 350l-.06-3.912c-.076-4.816-.165-9.632-.257-14.447q-.058-3.12-.105-6.239c-.046-2.999-.104-5.997-.164-8.996l-.035-2.791c-.19-8.397-1.387-14.626-6.379-21.615v-2a141 141 0 0 1 6.875-4.812c7.146-4.803 14.148-9.773 21.095-14.86 6.542-4.766 11.66-7.779 19.655-9.265l2.587-.502c8.762-1.649 17.581-2.932 26.41-4.166 5.531-.78 10.956-1.683 16.395-2.957 2.952-.652 5.92-1.015 8.92-1.375 6.783-.86 13.511-1.934 20.248-3.098C344.81 248 344.81 248 347 248"/><path fill="#13428f" d="M59 130c6.228 3.316 12.313 6.684 18.125 10.688q1.932 1.308 3.867 2.613l1.991 1.346c11.689 7.842 23.638 15.3 35.548 22.797a4867 4867 0 0 1 7.719 4.876l2.6 1.645 4.921 3.115a991 991 0 0 0 4.361 2.742c1.547.975 3.072 1.984 4.59 3.002 2.669 1.378 4.354 1.516 7.34 1.426l2.942-.031c2.974-.135 2.974-.135 5.71-.875 9.113-1.943 14.722 2.324 22.14 7.073 4.51 3.048 4.51 3.048 6.146 4.583 0 3 0 3-1.437 5.375-3.144 5.281-2.765 11.1-2.88 17.082l-.062 2.736q-.097 4.31-.184 8.62l-.13 5.857A8151 8151 0 0 0 182 249c-4.565-2.247-8.893-4.715-13.187-7.437l-2.096-1.32q-2.22-1.4-4.44-2.803a4005 4005 0 0 0-6.773-4.272 4924 4924 0 0 1-22.456-14.236 3313 3313 0 0 0-29.413-18.521 1128 1128 0 0 1-19.872-12.688c-3.144-2.05-6.3-4.066-9.517-6l-1.794-1.08a765 765 0 0 0-4.718-2.791c-3.526-2.389-6.803-4.99-8.734-8.852-.087-2.917-.116-5.81-.098-8.727l.005-2.614c.005-2.761.018-5.523.03-8.284q.008-2.805.014-5.61.017-6.882.049-13.765"/><path fill="#1763de" d="M97.422 210.512c3.213 1.854 6.389 3.742 9.516 5.738l2.06 1.302q3.505 2.219 7.002 4.448l5.555 3.527a9967 9967 0 0 1 13.758 8.76q4.224 2.692 8.453 5.381a3347 3347 0 0 1 32.13 20.727c3.829 2.494 7.663 4.98 11.518 7.433l1.881 1.2c7.007 3.994 15.935 1.803 23.455.472 9.866-1.714 9.866-1.714 14.25-1.5-3.557 3.919-7.703 6.69-12.062 9.625l-2.182 1.484c-10.617 7.216-17.89 5.573-30.395 3.228l-3.361-.65-3.564-.673c-7.688-1.46-15.37-2.96-23.026-4.582-5.417-1.12-10.863-1.988-16.328-2.834-8.863-1.376-17.68-2.939-26.496-4.587q-3.72-.695-7.44-1.384l-9.808-1.82a4903 4903 0 0 0-18.368-3.384 1118 1118 0 0 0-15.599-2.704l-4.011-.676q-3.909-.656-7.82-1.293l-3.58-.602-3.193-.525c-2.557-.576-4.502-1.331-6.767-2.623 16.97-12.329 16.97-12.329 24.5-17.5 5.225-3.589 10.368-7.28 15.5-11l4.605-3.316q4.161-3 8.258-6.086l3.45-2.536 2.988-2.246C95 210 95 210 97.42 210.512"/><path fill="#013a98" d="M41 61c4.044.578 6.771 1.85 10.21 4.027l3 1.886 3.165 2.025c1.08.682 2.161 1.365 3.274 2.07A720 720 0 0 1 79.478 83.36c5.895 3.967 12.008 7.555 18.118 11.179a338 338 0 0 1 16.723 10.651c5.266 3.562 10.617 6.98 15.993 10.371l2.52 1.592c4.007 2.558 4.007 2.558 8.168 4.846v2h-2l-.437 2.313C138 129 138 129 137 132a198 198 0 0 0-.316 7.074l-.063 2.072q-.097 3.27-.184 6.542l-.13 4.439A4579 4579 0 0 0 136 163c-3.008-1.148-5.775-2.345-8.496-4.066l-1.918-1.206-2.023-1.29-2.153-1.36a1691 1691 0 0 1-14.57-9.339c-6.808-4.39-13.7-8.646-20.579-12.927A999 999 0 0 1 63.683 118.3a180 180 0 0 0-13.764-8.217c-2.56-1.445-4.724-3.132-6.919-5.083l-2.604-2.14c-2.976-3.552-3.093-6.177-2.99-10.61v-2.23q.008-2.325.052-4.649c.042-2.364.041-4.725.034-7.09q.016-2.265.04-4.531v-2.128C37.636 67.26 38.426 64.528 41 61"/><path fill="#244d91" d="M306 122c3.546 1.314 6.584 2.875 9.75 4.938l2.918 1.886L322 131q4.029 2.63 8.063 5.25l2.177 1.415c5.265 3.406 10.588 6.706 15.947 9.96 5.667 3.447 11.328 6.899 16.938 10.438l1.813 1.121c1.39.885 2.732 1.843 4.062 2.816v2c-9.542 1.661-19.084 3.178-28.687 4.438-8.113 1.075-16.162 2.357-24.217 3.798-12.469 2.215-24.977 4.2-37.48 6.214-8.118 1.311-16.23 2.643-24.323 4.1-8.674 1.558-17.382 2.83-26.106 4.075q-3.405.486-6.809.979-3.036.438-6.073.871A74 74 0 0 0 210 190c-9.598 1.548-15.527-3.642-23-9l1-2a87 87 0 0 1 6.988-1.367c.722-.12 1.443-.24 2.186-.362 2.378-.391 4.758-.769 7.138-1.146l4.954-.806c10.853-1.758 21.724-3.347 32.616-4.848 9.427-1.32 18.78-2.964 28.143-4.68a589 589 0 0 1 21.1-3.478c7.51-1.09 7.51-1.09 15-2.313l2.195-.375c2.078-.586 2.078-.586 3.68-3.625-.253-5.06-2.257-9.637-4.062-14.316-1.662-4.756-2.056-8.967-2-13.996l.027-3.239z"/><path fill="#234b8c" d="M352 151c6.623 3.124 13.12 6.611 19 11v2q-4.216.763-8.437 1.5l-2.374.434c-5.474.946-10.634 1.2-16.189 1.066 2-2 2-2 5-3v-2h4l-1-4 4-2-2-1.375-2-1.625z"/><path fill="#1f427b" d="m59 130 9 5c-3 1-3 1-5.187.063L61 134q.066 7.58.208 15.161.042 2.579.063 5.156c.021 2.473.068 4.945.12 7.417l.003 2.324c.096 3.477.285 5.526 2.441 8.318A129 129 0 0 0 72 178c-3.312 0-4.313-.544-7.062-2.25l-2.098-1.266c-2.246-1.811-2.846-2.753-3.84-5.484-.274-2.976-.232-5.936-.195-8.922l.008-2.606c.011-2.74.037-5.481.062-8.222q.016-2.79.027-5.582.035-6.834.098-13.668"/><path fill="#2a67cb" d="M227 268c-3.024 3.257-6.179 5.724-10 8h-3l-1-3c-1.961-.824-1.961-.824-4-1l-1 1c-2.863.073-5.7.092-8.562.063l-2.444-.014q-2.997-.02-5.994-.049v-2l1.957.105c7.687.221 14.91-.718 22.454-2.038 3.914-.68 7.597-1.26 11.589-1.067"/><path fill="#1e4077" d="M129 176c3.806.639 6.37 2.458 9.563 4.563 7.22 4.28 12.41 4.133 20.511 3.011 6.562-.815 10.2-.73 15.598 3.297L176 188l-4 1v-2h-3v-2l-2.422.438C158.97 186.723 151.71 187.25 144 187v-2h-4v-2h-3v-2l-6-2v-2z"/><path fill="#0d3b87" d="m138 121 3 1v2h-2l-.437 2.313C138 129 138 129 137 132a198 198 0 0 0-.316 7.074l-.063 2.072q-.097 3.27-.184 6.542l-.13 4.439A4579 4579 0 0 0 136 163c-3.603-1.39-6.624-2.936-9.812-5.125l-2.395-1.633L122 155c3.2-1.6 5.723-.032 9 1v2l2 1v2h2v-36l2-1z"/><path fill="#0c3880" d="M277 96c-3.096 1.75-5.735 2.404-9.25 2.875-4.52.64-9.02 1.33-13.52 2.105l-3.133.538q-3.084.531-6.166 1.073C237.969 103.78 231.045 104.52 224 105v-2l6.152-.684c1.86-.135 1.86-.135 2.848-1.316 3.361-.325 6.723-.514 10.094-.719 2.797.04 2.797.04 3.906-1.281 1.79-.299 3.589-.54 5.39-.754l3.34-.4 3.52-.409 3.473-.42c4.787-.565 9.45-1.105 14.277-1.017"/><path fill="#1f58b5" d="M303 256v1l-3.027.586-3.91.789-3.903.773L289 260l-1 2-3.36-.035q-2.194-.015-4.39-.027l-2.21-.026c-3.538-.016-6.635.187-10.04 1.088a68 68 0 0 1-4.25.063L260 263c5.086-2.95 10.905-3.355 16.625-4.287 2.04-.334 4.078-.683 6.115-1.033 6.815-1.144 13.342-1.97 20.26-1.68"/><path fill="#0c3a87" d="M141 107c2.938.375 2.938.375 6 1l1 2c4.083 3.115 7.188 3.356 12.25 3.25l3.766-.047c2.867.134 2.867.134 3.984-1.203 5.997-1.173 11.907-1.1 18-1v1c-4.33.686-8.664 1.347-13 2l-1.991.307c-1.98.303-3.964.592-5.946.88-1.808.27-1.808.27-3.653.543-6.268.496-10.067-.78-15.285-4.23l-2.93-1.906L141 108z"/><path fill="#2d0f0e" d="m311 150 2 2c-.455 5.455-.455 5.455-3 8-1.98.578-1.98.578-4.402 1.035l-2.685.513-2.85.514-2.876.535c-6.372 1.154-12.71 2.1-19.187 2.403l1-2c1.813-.379 1.813-.379 4-.562 2.79-.065 2.79-.065 5-1.438 2.2-.404 4.41-.748 6.625-1.062l3.664-.536c3.605-.39 7.089-.472 10.711-.402v-2h2z"/><path fill="#215ab9" d="M347 248q.079 2.843.125 5.688l.07 3.199c-.196 3.136-.864 5.29-2.195 8.113-1.508-4.78-.582-9.085 0-14l-18 1c3.986-1.993 6.754-2.55 11.125-3.125l3.758-.508C345 248 345 248 347 248"/><path fill="#1e4179" d="m108 202 9 2v3l1.875.375C121 208 121 208 123 210c2.584.167 2.584.167 5 0v3l4 1v3a51 51 0 0 1-9.645-4.785l-2.548-1.608c-.865-.55-1.729-1.102-2.62-1.67l-2.677-1.681c-4.833-3.064-4.833-3.064-6.51-4.256z"/><path fill="#3269c3" d="m74 225 1 3h-3l1 3-1.898 1.023-2.477 1.352-2.46 1.336c-2.273 1.233-2.273 1.233-4.165 3.289-1.988.398-3.99.738-6 1 3.636-3.856 7.417-6.867 11.813-9.812l1.81-1.233A966 966 0 0 1 74 225"/><path fill="#240202" d="m143 180 1 3h18l1-3c2.02.602 4.021 1.273 6 2l1 2c-4.664.381-9.33.71-14 1l-3.203.207c-7.052.26-7.052.26-10.984-2.207L140 181z"/><path fill="#1e4078" d="m59 130 9 5-3 1-4-2-1 35h-1z"/><path fill="#0c3880" d="M144 43v1c-5.964 2.32-10.62 3.206-17 3l-3.5.5c-3.91.559-7.555.57-11.5.5v-1c3.831-.678 7.665-1.34 11.5-2l3.266-.578C132.602 43.425 138.08 42.77 144 43"/><path fill="#0d3a83" d="M85 53v1l-2.922.367-3.828.508-3.797.492C71.513 55.906 69.53 56.48 67 58l1 3c-2.905-1.302-4.81-2.709-7-5 8.065-1.884 15.699-3.146 24-3"/><path fill="#0a3986" d="M211.598 104.902q2.232.01 4.464.035l2.3.014q2.818.02 5.638.049v1q-4.53.76-9.062 1.5l-2.569.434c-4.862.788-9.444 1.226-14.369 1.066l1-2c1.813-.379 1.813-.379 4-.562 3.416-.3 5.166-1.442 8.598-1.536"/><path fill="#250f00" d="m341 269-1 3-3 1-1.437 2.063L334 277h-4l-2 4-4-1c2.453-1.841 4.913-3.671 7.375-5.5l2.117-1.59 2.031-1.504 1.873-1.396C339 269 339 269 341 269"/><path fill="#ececed" d="m78 200 5 1 1 3c-5.75 4-5.75 4-8 4-.687-1.75-.687-1.75-1-4 1.438-2.25 1.438-2.25 3-4"/><path fill="#210f00" d="m281 310 2 1c-7.766 8.17-7.766 8.17-12 10l-4-1z"/><path fill="#3567b7" d="M40 249c.553 2.076 1 3.844 1 6l5 1c-3.272 1.073-5.43.893-8.75.063l-2.422-.59L33 255c4.75-4.875 4.75-4.875 7-6"/><path fill="#376abe" d="M54 239c0 3 0 3-1 5h-4l-.812 1.813c-1.173 2.16-2.382 3.545-4.188 5.187-2-1-2-1-3-3z"/><path fill="#376abd" d="M97.625 210.563c2.25 1.361 4.337 2.776 6.375 4.437-2.413-.47-4.806-.95-7.187-1.562-1.826-.516-1.826-.516-3.813-.438l-.625 1.938C91 217 91 217 87.875 217.75L85 218c7.855-8.46 7.855-8.46 12.625-7.437"/><path fill="#0b3a87" d="m235.723 100.902 3.34.035 3.347.028L245 101v1q-4.125.756-8.25 1.5l-2.355.434-2.286.41-2.094.38C228 105 228 105 224 105v-2l6.152-.684c2.673-.457 2.555-1.305 5.57-1.414"/><path fill="#1e4179" d="m92 187 3 1-1 3 2 1v2l4 2c-3.883 0-5.468-1.379-8.687-3.5l-3.012-1.969L86 189c2.49-1.245 3.41-.777 6 0zM77 178h2v2l2 1v2a141 141 0 0 0 5 5c-3.623-1.326-6.635-2.943-9.812-5.125l-2.395-1.633L72 180l2-1 3 1z"/><path fill="#214785" d="M301 174c-3.383 1.964-6.522 2.56-10.375 3.125l-3.336.508c-3.13.35-6.143.434-9.289.367 1-2 1-2 2.66-2.59 2.923-.512 5.818-.757 8.777-.972l3.372-.254c2.74-.158 5.446-.22 8.191-.184"/><path fill="#000f22" d="M86 73c5.159 2.797 10.173 5.659 15 9-1.875.625-1.875.625-4 1l-2-2c-2.069-.643-2.069-.643-4-1v-3h-4z"/><path fill="#093a89" d="m198 37 12 6v2l2 1h-3v-2h-6l-1-3h-3z"/><path fill="#1057ca" d="M231.188 342.375 234 343c-2.25 2.5-2.25 2.5-5 5h-4v-4c3-2 3-2 6.188-1.625"/><path fill="#0c3a85" d="m280 89 8 4v2l-7 1z"/><path fill="#000b1d" d="M66 61c4.217 1.486 7.625 3.612 11.313 6.125l3.238 2.195L83 71l-2 1c-2.207-1.11-2.207-1.11-4.812-2.75l-2.583-1.61c-.86-.54-1.72-1.082-2.605-1.64l-2.824-1.578L66 63z"/><path fill="#1c59bb" d="M244 331h7c-3.382 3.68-6.425 5.979-11 8l1-4h4z"/><path fill="#376abd" d="M227 268c-2.49 2.667-4.634 4.557-8 6l-1-3-5-1v-1c9.41-1.148 9.41-1.148 14-1"/><path fill="#083a8b" d="m108 145 2.813.563c3.2.678 3.2.678 6.187-.563l2 2-2 4c-3.937-1.312-6.227-2.92-9-6"/><path fill="#1e417a" d="M178 190q1.943.892 3.875 1.813l2.18 1.019C186 194 186 194 188 197l-3 2v-3h-4l-1-3-2-1z"/><path fill="#280302" d="M111 205q2.411 1.146 4.813 2.313l2.707 1.3c2.27 1.27 3.772 2.453 5.48 4.387l-2 1-3-1-1-2-3-1v-2l-4-1z"/><path fill="#000d23" d="M139 124h2a564 564 0 0 1-.875 5.375l-.492 3.023C139 135 139 135 137 137c-.167-4.921-.248-8.503 2-13"/><path fill="#224989" d="m306 122 5 2-4 1 2 13-2 1c-.904-3.837-1.106-7.375-1.062-11.312l.027-3.239z"/><path fill="#376abe" d="M166 255c4.672 2.132 8.593 4.025 12 8-2.763-.523-5.326-1.109-8-2v-3l-4-1z"/><path fill="#1e4078" d="M155 232c3.024.588 6.018 1.227 9 2l1 4c-3.995-1.37-6.8-3.257-10-6m9 0 3 2h-3z"/><path fill="#1d3e75" d="m138 221 6 2 3.313.875C150 225 150 225 150.875 227.125L151 229c-4.724-1.624-8.942-4.11-13-7z"/><path fill="#230908" d="M291.563 160.938 295 161c-2.812 2.812-5.84 2.699-9.625 3.125l-2.14.262c-1.745.212-3.49.413-5.235.613l1-2c1.813-.379 1.813-.379 4-.562 3.408-.299 5.143-1.44 8.563-1.5"/><path fill="#224988" d="m311 125 10 5c-3 2-3 2-5 2v-3l-4 1z"/><path fill="#001020" d="m101 92 .313 1.938L102 96l3 1v2c-3.594-1.335-6.755-2.96-10-5 3-2 3-2 6-2"/><path fill="#0b3a88" d="M67 76q2.161 1.147 4.313 2.313l2.425 1.3c2.1 1.288 3.616 2.571 5.262 4.387-4.142-.46-6.248-.855-9-4l-3-1z"/><path fill="#2d68c7" d="m210 275 6 1c-2.688 2.252-4.646 3.882-8 5z"/><path fill="#1e4179" d="M88 149c4.671 1.557 8.087 4.084 12 7l-4 1-1-2-3-1v-2l-4-1z"/><path fill="#093a8b" d="M71 122c3.375-.187 3.375-.187 7 0l2 3-1 3a809 809 0 0 1-4-2.437l-2.25-1.372L71 123z"/><path fill="#001b39" d="m150 114 3.5.5c4.2.532 8.27.576 12.5.5v1c-5.361 1.129-10.553 1.097-16 1z"/><path fill="#1d3e74" d="M108 202c3.094.427 6.059.93 9 2 1.563 2.625 1.563 2.625 2 5-4.108-1.45-7.469-3.454-11-6z"/><path fill="#1b59bf" d="m278 309 4 1-9 6v-3h2v-2h3z"/><path fill="#1e59b7" d="m304 291 4 1-9 6 1-5h4z"/><path fill="#1857bf" d="m327 273 1 2 3 1-7 4c.375-2.937.375-2.937 1-6z"/><path fill="#000717" d="M181 114c-3.35 2.026-5.87 2.217-9.75 2.125l-2.984-.055L166 116c2.342-2.342 3.17-2.363 6.375-2.687l2.336-.262c2.301-.051 4.096.283 6.289.949"/><path fill="#356ac0" d="m144 241 8 4v1h-7z"/><path fill="#300404" d="m129 174 7 2v2l4 2c-3.389 0-4.398-.644-7.187-2.437l-2.168-1.372L129 175z"/><path fill="#1f437d" d="m312 156 1 4c-3.314 2.21-4.345 2.225-8.187 2.125l-2.731-.055L300 162c2.616-1.386 4.78-2.212 7.688-3l3.312-1z"/><path fill="#093885" d="m104 84 7 1v2h2l1 3c-3.59-1.333-6.796-2.894-10-5z"/><path fill="#001129" d="M249 68c3.438.813 3.438.813 7 2l1 3h2l-1 2q-2.254-1.463-4.5-2.937l-2.531-1.653L249 69z"/><path fill="#0b3a85" d="m76 66 2.75.938c2.416.79 4.778 1.491 7.25 2.062l-1 3c-3.937-1.312-6.227-2.92-9-6"/><path fill="#0e3b84" d="M98 51c-2 2-2 2-4.383 2.195l-2.742-.07-2.758-.055L86 53c4.34-2.215 7.194-3.545 12-2"/><path fill="#1f0e00" d="M307 292v3c-2.5 2.188-2.5 2.188-5 4l-2-2z"/><path fill="#204580" d="M363 160c3.716-.2 4.772-.152 8 2v2h-5v-2h-3z"/><path fill="#281400" d="m234 343 2 1c-2.333 3.5-4.17 4.404-8 6l-2-1z"/><path fill="#2058b3" d="m220 288 2 1-1 7a91 91 0 0 1-4-4v-2z"/><path fill="#2a1300" d="m229 279 4 1-8 5c1-4 1-4 4-6"/><path fill="#2359b2" d="m248 268 2 1c-1.375 1.5-1.375 1.5-3 3h-2l-1 3-4-1z"/><path fill="#000d21" d="m75 125 10 6-4 1c-3.25-2.312-3.25-2.312-6-5z"/><path fill="#d9d8d6" d="m257 342 2 1c-2.25 2.563-2.25 2.563-5 5l-4-1z"/><path fill="#3769bc" d="M147 274c6.523-.37 6.523-.37 8.938 1.5L157 277c-7.75-.75-7.75-.75-10-3"/><path fill="#3169c4" d="M178 263c3.375 1.186 5.647 2.276 8 5l-7-1z"/><path fill="#234c8d" d="m330 137 6 3-2 2h-4z"/><path fill="#1d59bb" d="m294 298 4 1-8 5v-3h3z"/><path fill="#1c59bd" d="M258.375 263.25 260 264l-5 1-1 3-4-1c5.415-4.062 5.415-4.062 8.375-3.75"/><path fill="#0d3c87" d="m122 111 8 4v1l-7-1z"/></svg>